<svg width="16" height="17" viewBox="0 0 16 17" fill="none" xmlns="http://www.w3.org/2000/svg">
<path d="M14.2857 16.5H1.71429C0.7675 16.5 0 15.7325 0 14.7857V2.21429C0 1.2675 0.7675 0.5 1.71429 0.5H14.2857C15.2325 0.5 16 1.2675 16 2.21429V14.7857C16 15.7325 15.2325 16.5 14.2857 16.5ZM6.9755 12.9979L13.5469 6.42646C13.7701 6.20332 13.7701 5.8415 13.5469 5.61836L12.7388 4.81025C12.5157 4.58711 12.1539 4.58707 11.9307 4.81025L6.57143 10.1695L4.06932 7.66736C3.84618 7.44421 3.48436 7.44421 3.26118 7.66736L2.45307 8.47546C2.22993 8.69861 2.22993 9.06043 2.45307 9.28357L6.16736 12.9979C6.39054 13.2211 6.75232 13.2211 6.9755 12.9979Z" fill="#444A8F"/>
</svg>
